<svg width="184" height="42" viewBox="0 0 184 42" fill="none" xmlns="http://www.w3.org/2000/svg">
<g id="Modo_de_aislamiento" clip-path="url(#clip0_7175_792)">
<path id="Vector" d="M4.17065 29.1994C1.93637 29.1994 0.119161 27.4593 0 25.2914V37.4431C0 39.7142 1.8619 41.5576 4.15575 41.5576C6.44961 41.5576 8.3115 39.7142 8.3115 37.4431V25.2914C8.19234 27.474 6.39003 29.1994 4.15575 29.1994" fill="#008859"/>
<path id="Vector_2" d="M4.17065 20.941C6.4645 20.941 8.34129 22.7844 8.34129 25.0702C8.34129 27.356 6.4794 29.1994 4.17065 29.1994C1.8619 29.1994 0 27.356 0 25.0702C0 22.7844 1.8619 20.941 4.17065 20.941Z" fill="#008859"/>
<path id="Vector_3" d="M39.8749 8.62711C37.5811 8.62711 35.7043 6.78371 35.7043 4.4979C35.7043 3.67206 35.9426 2.9052 36.3746 2.27107L22.0156 22.1208L25.2181 26.5449C25.8139 27.2528 26.1863 28.1819 26.1863 29.1847C26.1863 29.9663 25.9628 30.7037 25.5756 31.3378L35.7192 17.3132V37.2219C35.8383 35.0393 37.6407 33.3139 39.8749 33.3139C42.1092 33.3139 43.9115 35.0393 44.0307 37.2219V4.71911C43.9115 6.90169 42.1092 8.62711 39.8749 8.62711Z" fill="#008859"/>
<path id="Vector_4" d="M22.0154 25.0702C23.3113 25.0702 24.4582 25.6454 25.2179 26.5597L22.0154 22.1355L7.5373 2.10886C6.21163 0.26546 3.60498 -0.162208 1.74308 1.16504C-0.118813 2.47754 -0.550773 5.04355 0.789792 6.9017L18.4704 31.3525C18.4704 31.3525 18.515 31.4263 18.5448 31.4705C18.1129 30.8216 17.8597 30.04 17.8597 29.2142C17.8597 26.9431 19.7215 25.085 22.0303 25.085" fill="#008859"/>
<path id="Vector_5" d="M130.526 5.57445C126.683 2.1826 121.47 0.383438 115.452 0.383438H103C105.294 0.383438 107.156 2.22684 107.156 4.4979C107.156 6.76897 105.294 8.61237 103 8.61237H115.452C119.4 8.61237 122.706 9.68892 125 11.7093C127.413 13.8476 128.635 16.9593 128.635 21C128.635 25.0407 127.413 28.1229 125 30.2465C122.706 32.2669 119.414 33.3287 115.467 33.3287H107.171V37.0007C107.171 37.1334 107.186 37.2809 107.186 37.4136C107.186 39.6995 105.324 41.5429 103.015 41.5429H115.452C121.455 41.5429 126.654 39.7584 130.496 36.3961C134.712 32.6945 136.931 27.3708 136.931 20.9853C136.931 14.5997 134.712 9.27599 130.526 5.5597" fill="#008859"/>
<path id="Vector_6" d="M107.171 37.0007V16.8708C107.171 14.5997 105.309 12.7563 103.015 12.7563C100.721 12.7563 98.8594 14.5997 98.8594 16.8708V37.4284C98.8594 35.1573 100.721 33.2992 103.03 33.2992C105.19 33.2992 106.962 34.9214 107.171 37.0007Z" fill="#008859"/>
<path id="Vector_7" d="M158.633 37.8708C158.633 35.5997 160.495 33.7416 162.804 33.7416C155.699 33.7416 149.92 28.0197 149.92 20.9853C149.92 17.5934 151.26 14.3785 153.703 11.9305C155.312 10.3083 155.297 7.71279 153.658 6.12009C152.02 4.5274 149.398 4.54214 147.79 6.16434C143.813 10.1608 141.623 15.4403 141.623 21C141.623 32.4143 150.873 41.7346 162.342 41.9705C162.342 41.9705 162.342 41.9705 162.357 41.9705C160.272 41.7493 158.648 39.9944 158.648 37.8708" fill="#008859"/>
<path id="Vector_8" d="M162.803 7.62939e-06C165.097 7.62939e-06 166.974 1.84341 166.974 4.12922C166.974 6.41504 165.112 8.25843 162.803 8.25843C160.495 8.25843 158.633 6.41504 158.633 4.12922C158.633 1.84341 160.495 7.62939e-06 162.803 7.62939e-06Z" fill="#008859"/>
<path id="Vector_9" d="M22.0144 25.0702C24.3083 25.0702 26.185 26.9136 26.185 29.1994C26.185 31.4853 24.3231 33.3287 22.0144 33.3287C19.7056 33.3287 17.8438 31.4853 17.8438 29.1994C17.8438 26.9136 19.7056 25.0702 22.0144 25.0702Z" fill="#008859"/>
<path id="Vector_10" d="M39.8738 33.3139C42.1676 33.3139 44.0444 35.1573 44.0444 37.4431C44.0444 39.7289 42.1825 41.5723 39.8738 41.5723C37.565 41.5723 35.7031 39.7289 35.7031 37.4431C35.7031 35.1573 37.565 33.3139 39.8738 33.3139Z" fill="#008859"/>
<path id="Vector_11" d="M39.8738 0.383438C42.1676 0.383438 44.0444 2.22684 44.0444 4.51265C44.0444 6.79847 42.1825 8.64187 39.8738 8.64187C37.565 8.64187 35.7031 6.79847 35.7031 4.51265C35.7031 2.22684 37.565 0.383438 39.8738 0.383438Z" fill="#008859"/>
<path id="Vector_12" d="M103.03 33.2992C105.324 33.2992 107.201 35.1426 107.201 37.4284C107.201 39.7142 105.339 41.5576 103.03 41.5576C100.721 41.5576 98.8594 39.7142 98.8594 37.4284C98.8594 35.1426 100.721 33.2992 103.03 33.2992Z" fill="#008859"/>
<path id="Vector_13" d="M103.015 0.383438C105.309 0.383438 107.171 2.22684 107.171 4.4979C107.171 6.76897 105.309 8.61237 103.015 8.61237C100.721 8.61237 98.8594 6.76897 98.8594 4.4979C98.8594 2.22684 100.721 0.383438 103.015 0.383438Z" fill="#008859"/>
<path id="Vector_14" d="M163.206 0.0147552C165.321 0.221216 166.974 1.97613 166.974 4.11447C166.974 6.25282 165.246 8.09622 163.057 8.22894C170.043 8.36167 175.703 14.0393 175.703 20.9853C175.703 24.4066 174.362 27.6068 171.934 30.0105C169.506 32.4143 166.274 33.7416 162.818 33.7416C165.112 33.7416 166.974 35.585 166.974 37.8708C166.974 39.9944 165.351 41.7346 163.28 41.9705C168.776 41.8525 173.915 39.6847 177.803 35.8357C181.795 31.8834 183.999 26.6039 183.999 20.9853C183.999 9.55619 174.705 0.221216 163.206 0.0147552Z" fill="#008859"/>
<path id="Vector_15" d="M162.803 33.7563C165.097 33.7563 166.974 35.5997 166.974 37.8855C166.974 40.1714 165.112 42.0148 162.803 42.0148C160.495 42.0148 158.633 40.1714 158.633 37.8855C158.633 35.5997 160.495 33.7563 162.803 33.7563Z" fill="#008859"/>
<path id="Vector_16" d="M67.6841 37.8708C67.6841 35.5997 69.546 33.7416 71.8548 33.7416C64.7498 33.7416 58.9704 28.0197 58.9704 20.9853C58.9704 17.5934 60.311 14.3785 62.7538 11.9305C64.3625 10.3083 64.3476 7.71279 62.7091 6.12009C61.0707 4.5274 58.4491 4.54214 56.8404 6.16434C52.8634 10.1608 50.6738 15.4403 50.6738 21C50.6738 32.4143 59.9237 41.7346 71.393 41.9705C71.393 41.9705 71.393 41.9705 71.4079 41.9705C69.3226 41.7493 67.699 39.9944 67.699 37.8708" fill="#008859"/>
<path id="Vector_17" d="M71.8542 7.62939e-06C74.1481 7.62939e-06 76.0249 1.84341 76.0249 4.12922C76.0249 6.41504 74.163 8.25843 71.8542 8.25843C69.5455 8.25843 67.6836 6.41504 67.6836 4.12922C67.6836 1.84341 69.5455 7.62939e-06 71.8542 7.62939e-06Z" fill="#008859"/>
<path id="Vector_18" d="M72.2408 0.0147552C74.3559 0.221216 76.0093 1.97613 76.0093 4.11447C76.0093 6.25282 74.2814 8.09622 72.0918 8.22894C79.0926 8.36167 84.7378 14.0393 84.7378 20.9853C84.7378 24.4066 83.3973 27.6068 80.9694 30.0105C78.5414 32.4143 75.3092 33.7416 71.8535 33.7416C74.1474 33.7416 76.0093 35.585 76.0093 37.8708C76.0093 39.9944 74.3857 41.7346 72.3153 41.9705C77.8116 41.8525 82.9504 39.6847 86.838 35.8357C90.83 31.8834 93.0344 26.6039 93.0344 20.9853C93.0493 9.55619 83.7548 0.221216 72.2408 0.0147552Z" fill="#008859"/>
<path id="Vector_19" d="M71.8542 33.7563C74.1481 33.7563 76.0249 35.5997 76.0249 37.8855C76.0249 40.1714 74.163 42.0148 71.8542 42.0148C69.5455 42.0148 67.6836 40.1714 67.6836 37.8855C67.6836 35.5997 69.5455 33.7563 71.8542 33.7563Z" fill="#008859"/>
<path id="Vector_20" d="M18.232 21.5752C19.2002 21.5752 19.2002 20.1004 18.232 20.1004C17.2638 20.1004 17.2638 21.5752 18.232 21.5752Z" fill="#008859"/>
</g>
<defs>
<clipPath id="clip0_7175_792">
<rect width="184" height="42" fill="white"/>
</clipPath>
</defs>
</svg>
